<svg width="185" height="17" viewBox="0 0 185 17" fill="none" xmlns="http://www.w3.org/2000/svg">
<path d="M0.64 16V2H2.76L8.36 10.14L7.44 10.12L13.1 2H15.14V16H12.98V10.18C12.98 9.02 13.0067 7.96 13.06 7C13.1267 6.02667 13.2333 5.05333 13.38 4.08L13.64 4.86L8.52 11.98H7.2L2.18 4.9L2.4 4.08C2.54667 5.02667 2.64667 5.98 2.7 6.94C2.76667 7.88667 2.8 8.96667 2.8 10.18V16H0.64ZM20.4052 16V5.5H22.4852V9L22.1252 8.48C22.2985 7.89333 22.5918 7.36 23.0052 6.88C23.4185 6.38667 23.8918 6 24.4252 5.72C24.9585 5.42667 25.5118 5.28 26.0852 5.28C26.4185 5.28 26.7385 5.31333 27.0452 5.38C27.3652 5.44667 27.6118 5.53333 27.7852 5.64L27.2452 7.84C27.0318 7.72 26.7785 7.62667 26.4852 7.56C26.2052 7.49333 25.9318 7.46 25.6652 7.46C25.2118 7.46 24.7918 7.54667 24.4052 7.72C24.0185 7.88 23.6785 8.1 23.3852 8.38C23.1052 8.66 22.8852 8.98 22.7252 9.34C22.5652 9.68667 22.4852 10.0533 22.4852 10.44V16H20.4052ZM30.1342 16.22C29.5876 16.22 29.1742 16.0867 28.8942 15.82C28.6142 15.5533 28.4742 15.1867 28.4742 14.72C28.4742 14.3067 28.6142 13.9533 28.8942 13.66C29.1876 13.3667 29.6009 13.22 30.1342 13.22C30.6809 13.22 31.0942 13.3533 31.3742 13.62C31.6542 13.8867 31.7942 14.2533 31.7942 14.72C31.7942 15.1333 31.6476 15.4867 31.3542 15.78C31.0742 16.0733 30.6676 16.22 30.1342 16.22ZM42.5925 16.2C41.5392 16.2 40.5458 16.0333 39.6125 15.7C38.6925 15.3533 37.8792 14.8667 37.1725 14.24C36.4658 13.6 35.9125 12.84 35.5125 11.96C35.1125 11.0667 34.9125 10.08 34.9125 9C34.9125 8 35.1058 7.06667 35.4925 6.2C35.8925 5.33333 36.4458 4.58 37.1525 3.94C37.8725 3.28667 38.7058 2.78 39.6525 2.42C40.5992 2.06 41.6192 1.88 42.7125 1.88C43.5392 1.88 44.3258 1.98667 45.0725 2.2C45.8192 2.41333 46.4858 2.7 47.0725 3.06C47.6725 3.42 48.1525 3.82 48.5125 4.26L47.1125 5.76C46.6858 5.38667 46.2325 5.07333 45.7525 4.82C45.2858 4.55333 44.7925 4.34667 44.2725 4.2C43.7658 4.05333 43.2458 3.98 42.7125 3.98C41.9258 3.98 41.1925 4.10667 40.5125 4.36C39.8458 4.61333 39.2592 4.96667 38.7525 5.42C38.2458 5.87333 37.8525 6.40667 37.5725 7.02C37.2925 7.62 37.1525 8.28 37.1525 9C37.1525 9.77333 37.2992 10.4733 37.5925 11.1C37.8858 11.7267 38.2925 12.2667 38.8125 12.72C39.3325 13.16 39.9258 13.5 40.5925 13.74C41.2592 13.98 41.9658 14.1 42.7125 14.1C43.3392 14.1 43.9325 14.0267 44.4925 13.88C45.0658 13.72 45.5658 13.5 45.9925 13.22C46.4325 12.94 46.7658 12.6133 46.9925 12.24C47.2325 11.8533 47.3458 11.4467 47.3325 11.02V10.68L47.6325 11.02H42.6725V8.9H49.5925C49.6192 9.07333 49.6392 9.22667 49.6525 9.36C49.6658 9.48 49.6725 9.59333 49.6725 9.7C49.6858 9.79333 49.6925 9.88667 49.6925 9.98C49.6925 10.9533 49.5125 11.8267 49.1525 12.6C48.7925 13.36 48.2925 14.0067 47.6525 14.54C47.0258 15.0733 46.2792 15.4867 45.4125 15.78C44.5592 16.06 43.6192 16.2 42.5925 16.2ZM53.7645 16V5.5H55.8445V9L55.4845 8.48C55.6579 7.89333 55.9512 7.36 56.3645 6.88C56.7779 6.38667 57.2512 6 57.7845 5.72C58.3179 5.42667 58.8712 5.28 59.4445 5.28C59.7779 5.28 60.0979 5.31333 60.4045 5.38C60.7245 5.44667 60.9712 5.53333 61.1445 5.64L60.6045 7.84C60.3912 7.72 60.1379 7.62667 59.8445 7.56C59.5645 7.49333 59.2912 7.46 59.0245 7.46C58.5712 7.46 58.1512 7.54667 57.7645 7.72C57.3779 7.88 57.0379 8.1 56.7445 8.38C56.4645 8.66 56.2445 8.98 56.0845 9.34C55.9245 9.68667 55.8445 10.0533 55.8445 10.44V16H53.7645ZM69.3895 16.2C68.1895 16.2 67.1229 15.9733 66.1895 15.52C65.2562 15.0533 64.5229 14.42 63.9895 13.62C63.4695 12.82 63.2095 11.9 63.2095 10.86C63.2095 10.0067 63.3629 9.24 63.6695 8.56C63.9762 7.88 64.3962 7.29333 64.9295 6.8C65.4762 6.30667 66.1162 5.92667 66.8495 5.66C67.5829 5.39333 68.3695 5.26 69.2095 5.26C69.9695 5.26 70.6762 5.38667 71.3295 5.64C71.9962 5.89333 72.5762 6.24667 73.0695 6.7C73.5629 7.15333 73.9429 7.69333 74.2095 8.32C74.4895 8.93333 74.6229 9.61333 74.6095 10.36L74.5895 11.32H64.8895L64.4295 9.68H72.8095L72.5095 9.94V9.46C72.4562 9.02 72.2695 8.62667 71.9495 8.28C71.6295 7.93333 71.2295 7.66 70.7495 7.46C70.2695 7.26 69.7562 7.16 69.2095 7.16C68.4095 7.16 67.7095 7.28667 67.1095 7.54C66.5229 7.79333 66.0629 8.18667 65.7295 8.72C65.4095 9.24 65.2495 9.90667 65.2495 10.72C65.2495 11.4533 65.4362 12.0867 65.8095 12.62C66.1829 13.1533 66.7029 13.5667 67.3695 13.86C68.0362 14.1533 68.8029 14.3 69.6695 14.3C70.4162 14.3 71.0629 14.1933 71.6095 13.98C72.1562 13.7667 72.6762 13.4733 73.1695 13.1L74.1495 14.6C73.8029 14.8933 73.3695 15.1667 72.8495 15.42C72.3295 15.66 71.7695 15.8533 71.1695 16C70.5829 16.1333 69.9895 16.2 69.3895 16.2ZM83.8622 16.2C82.6622 16.2 81.5955 15.9733 80.6622 15.52C79.7289 15.0533 78.9955 14.42 78.4622 13.62C77.9422 12.82 77.6822 11.9 77.6822 10.86C77.6822 10.0067 77.8355 9.24 78.1422 8.56C78.4489 7.88 78.8689 7.29333 79.4022 6.8C79.9489 6.30667 80.5889 5.92667 81.3222 5.66C82.0555 5.39333 82.8422 5.26 83.6822 5.26C84.4422 5.26 85.1489 5.38667 85.8022 5.64C86.4689 5.89333 87.0489 6.24667 87.5422 6.7C88.0355 7.15333 88.4155 7.69333 88.6822 8.32C88.9622 8.93333 89.0955 9.61333 89.0822 10.36L89.0622 11.32H79.3622L78.9022 9.68H87.2822L86.9822 9.94V9.46C86.9289 9.02 86.7422 8.62667 86.4222 8.28C86.1022 7.93333 85.7022 7.66 85.2222 7.46C84.7422 7.26 84.2289 7.16 83.6822 7.16C82.8822 7.16 82.1822 7.28667 81.5822 7.54C80.9955 7.79333 80.5355 8.18667 80.2022 8.72C79.8822 9.24 79.7222 9.90667 79.7222 10.72C79.7222 11.4533 79.9089 12.0867 80.2822 12.62C80.6555 13.1533 81.1755 13.5667 81.8422 13.86C82.5089 14.1533 83.2755 14.3 84.1422 14.3C84.8889 14.3 85.5355 14.1933 86.0822 13.98C86.6289 13.7667 87.1489 13.4733 87.6422 13.1L88.6222 14.6C88.2755 14.8933 87.8422 15.1667 87.3222 15.42C86.8022 15.66 86.2422 15.8533 85.6422 16C85.0555 16.1333 84.4622 16.2 83.8622 16.2ZM93.3348 16V5.5H95.3948V7.98L94.8748 8.14C95.0748 7.66 95.3882 7.20667 95.8148 6.78C96.2415 6.34 96.7482 5.98 97.3348 5.7C97.9348 5.42 98.5682 5.28 99.2348 5.28C100.155 5.28 100.922 5.46 101.535 5.82C102.162 6.16667 102.628 6.66667 102.935 7.32C103.242 7.97333 103.395 8.76 103.395 9.68V16H101.335V9.9C101.335 9.3 101.222 8.8 100.995 8.4C100.782 7.98667 100.468 7.68 100.055 7.48C99.6548 7.26667 99.1815 7.16667 98.6348 7.18C98.1682 7.18 97.7348 7.26 97.3348 7.42C96.9482 7.58 96.6082 7.79333 96.3148 8.06C96.0215 8.32667 95.7948 8.62667 95.6348 8.96C95.4748 9.28 95.3948 9.61333 95.3948 9.96V16H94.3748C94.1348 16 93.9282 16 93.7548 16C93.5815 16 93.4415 16 93.3348 16ZM114.255 16L120.235 2H122.575L128.515 16H126.175L122.375 7.08C122.308 6.92 122.215 6.68667 122.095 6.38C121.988 6.06 121.868 5.72 121.735 5.36C121.602 5 121.475 4.66 121.355 4.34C121.235 4.00667 121.142 3.74667 121.075 3.56L121.615 3.54C121.522 3.80667 121.415 4.1 121.295 4.42C121.188 4.74 121.068 5.06667 120.935 5.4C120.815 5.73333 120.695 6.05333 120.575 6.36C120.455 6.65333 120.348 6.92 120.255 7.16L116.475 16H114.255ZM116.875 12.6L117.715 10.52H124.835L125.535 12.6H116.875ZM132.872 16V4.8C132.872 4.10667 133.025 3.49333 133.332 2.96C133.639 2.41333 134.059 1.98667 134.592 1.68C135.139 1.37333 135.765 1.22 136.472 1.22C137.019 1.22 137.499 1.30667 137.912 1.48C138.339 1.65333 138.665 1.86 138.892 2.1L138.192 3.76C137.992 3.6 137.759 3.46 137.492 3.34C137.225 3.20667 136.965 3.14 136.712 3.14C136.272 3.14 135.912 3.21333 135.632 3.36C135.365 3.49333 135.172 3.68667 135.052 3.94C134.932 4.19333 134.872 4.48 134.872 4.8V16H133.872C133.725 16 133.565 16 133.392 16C133.232 16 133.059 16 132.872 16ZM130.872 7.66V5.76H138.232V7.66H130.872ZM142.358 16V5.5H144.438V9L144.078 8.48C144.252 7.89333 144.545 7.36 144.958 6.88C145.372 6.38667 145.845 6 146.378 5.72C146.912 5.42667 147.465 5.28 148.038 5.28C148.372 5.28 148.692 5.31333 148.998 5.38C149.318 5.44667 149.565 5.53333 149.738 5.64L149.198 7.84C148.985 7.72 148.732 7.62667 148.438 7.56C148.158 7.49333 147.885 7.46 147.618 7.46C147.165 7.46 146.745 7.54667 146.358 7.72C145.972 7.88 145.632 8.1 145.338 8.38C145.058 8.66 144.838 8.98 144.678 9.34C144.518 9.68667 144.438 10.0533 144.438 10.44V16H142.358ZM153.633 16V5.5H155.693V16H153.633ZM154.633 3.1C154.193 3.1 153.853 2.98667 153.613 2.76C153.373 2.53333 153.253 2.21333 153.253 1.8C153.253 1.41333 153.373 1.1 153.613 0.859999C153.866 0.619999 154.206 0.499999 154.633 0.499999C155.073 0.499999 155.413 0.613333 155.653 0.84C155.893 1.06667 156.013 1.38667 156.013 1.8C156.013 2.18667 155.886 2.5 155.633 2.74C155.393 2.98 155.059 3.1 154.633 3.1ZM165.629 16.2C164.549 16.2 163.583 15.96 162.729 15.48C161.889 15 161.216 14.3467 160.709 13.52C160.216 12.6933 159.969 11.7667 159.969 10.74C159.969 9.71333 160.216 8.78667 160.709 7.96C161.216 7.13333 161.889 6.48 162.729 6C163.583 5.52 164.549 5.28 165.629 5.28C166.683 5.28 167.649 5.46667 168.529 5.84C169.409 6.21333 170.089 6.72 170.569 7.36L169.429 8.88C169.149 8.56 168.803 8.26667 168.389 8C167.989 7.73333 167.556 7.52667 167.089 7.38C166.636 7.22 166.189 7.14 165.749 7.14C165.029 7.14 164.383 7.3 163.809 7.62C163.249 7.92667 162.809 8.35333 162.489 8.9C162.169 9.44667 162.009 10.06 162.009 10.74C162.009 11.42 162.176 12.0333 162.509 12.58C162.856 13.1133 163.309 13.54 163.869 13.86C164.443 14.18 165.076 14.34 165.769 14.34C166.276 14.34 166.743 14.2733 167.169 14.14C167.609 14.0067 168.016 13.8267 168.389 13.6C168.776 13.36 169.123 13.0933 169.429 12.8L170.569 14.28C170.009 14.8133 169.296 15.2667 168.429 15.64C167.576 16.0133 166.643 16.2 165.629 16.2ZM178.646 16.2C177.62 16.2 176.706 15.9667 175.906 15.5C175.106 15.02 174.473 14.3667 174.006 13.54C173.553 12.7133 173.326 11.7733 173.326 10.72C173.326 9.66667 173.56 8.73333 174.026 7.92C174.506 7.09333 175.16 6.44667 175.986 5.98C176.813 5.51333 177.753 5.28 178.806 5.28C179.446 5.28 180.033 5.36667 180.566 5.54C181.113 5.7 181.586 5.92667 181.986 6.22C182.386 6.51333 182.706 6.84 182.946 7.2C183.186 7.54667 183.32 7.91333 183.346 8.3L182.846 8.22V5.5H184.906V16H182.846V13.34L183.286 13.32C183.233 13.6533 183.073 13.9933 182.806 14.34C182.553 14.6733 182.206 14.98 181.766 15.26C181.34 15.54 180.86 15.7667 180.326 15.94C179.793 16.1133 179.233 16.2 178.646 16.2ZM179.166 14.3C179.9 14.3 180.546 14.1467 181.106 13.84C181.68 13.5333 182.126 13.1133 182.446 12.58C182.766 12.0333 182.926 11.4133 182.926 10.72C182.926 10.0533 182.766 9.45333 182.446 8.92C182.126 8.38667 181.68 7.96667 181.106 7.66C180.546 7.34 179.9 7.18 179.166 7.18C178.433 7.18 177.786 7.34 177.226 7.66C176.666 7.96667 176.226 8.38667 175.906 8.92C175.586 9.45333 175.426 10.0533 175.426 10.72C175.426 11.4133 175.586 12.0333 175.906 12.58C176.226 13.1133 176.666 13.5333 177.226 13.84C177.786 14.1467 178.433 14.3 179.166 14.3Z" fill="#ACC425"/>
</svg>
